<svg width="23" height="23" viewBox="0 0 23 23" fill="none" xmlns="http://www.w3.org/2000/svg">
<path fill-rule="evenodd" clip-rule="evenodd" d="M6.46875 18.6875C6.46875 17.8936 7.11234 17.25 7.90625 17.25C8.70016 17.25 9.34375 17.8936 9.34375 18.6875C9.34375 19.4814 8.70016 20.125 7.90625 20.125C7.11234 20.125 6.46875 19.4814 6.46875 18.6875Z" fill="white"/>
<path fill-rule="evenodd" clip-rule="evenodd" d="M16.5312 18.6875C16.5312 17.8936 17.1748 17.25 17.9688 17.25C18.7627 17.25 19.4062 17.8936 19.4062 18.6875C19.4062 19.4814 18.7627 20.125 17.9688 20.125C17.1748 20.125 16.5312 19.4814 16.5312 18.6875Z" fill="white"/>
<path fill-rule="evenodd" clip-rule="evenodd" d="M1.4375 3.59375C1.4375 3.1968 1.7593 2.875 2.15625 2.875H5.03125C5.38002 2.875 5.67845 3.12538 5.73906 3.46884L7.79052 15.0938H18.6875C19.0845 15.0938 19.4062 15.4155 19.4062 15.8125C19.4062 16.2095 19.0845 16.5312 18.6875 16.5312H7.1875C6.83873 16.5312 6.5403 16.2809 6.47969 15.9374L4.42823 4.3125H2.15625C1.7593 4.3125 1.4375 3.9907 1.4375 3.59375Z" fill="white"/>
<path fill-rule="evenodd" clip-rule="evenodd" d="M19.6866 5.03125C19.846 5.03121 20.0034 5.06653 20.1476 5.13466C20.2918 5.20286 20.4192 5.30224 20.5204 5.42562C20.6216 5.54901 20.6941 5.69332 20.7328 5.84816C20.7715 6.00296 20.7753 6.16441 20.744 6.32086C20.744 6.32089 20.744 6.32093 20.744 6.32096L19.4502 12.7897C19.4013 13.0342 19.2691 13.2542 19.0762 13.4122C18.8833 13.5702 18.6417 13.6564 18.3923 13.6562L18.3928 12.9375V13.6562H18.3923H7.1875C6.79055 13.6562 6.46875 13.3345 6.46875 12.9375C6.46875 12.5405 6.79055 12.2188 7.1875 12.2188H18.0984L18.0407 12.5076L18.0407 12.5077L18.3931 12.5782L18.3931 12.5782L18.7454 12.6487L18.3931 12.5781L18.3928 12.5781L18.0407 12.5076C18.057 12.4261 18.101 12.3528 18.1653 12.3001C18.2295 12.2476 18.3099 12.2188 18.3928 12.2188H18.0984L19.2484 6.46875H19.6866C19.6335 6.46871 19.5812 6.45694 19.5332 6.43428C19.4851 6.41155 19.4427 6.37842 19.409 6.33729C19.3752 6.29617 19.351 6.24806 19.3381 6.19645C19.3253 6.14494 19.324 6.09122 19.3344 6.03915L19.2484 6.46875H5.75C5.35305 6.46875 5.03125 6.14695 5.03125 5.75C5.03125 5.35305 5.35305 5.03125 5.75 5.03125H19.6864C19.6863 5.03125 19.6862 5.03125 19.6861 5.03125L19.6866 5.75V5.03125Z" fill="white"/>
</svg>
