<svg width="18" height="18" viewBox="0 0 18 18" fill="none" xmlns="http://www.w3.org/2000/svg">
<path d="M9.00008 0.666748C4.40508 0.666748 0.666748 4.40508 0.666748 9.00008V12.4526C0.666748 13.3059 1.41425 14.0001 2.33341 14.0001H3.16675C3.38776 14.0001 3.59972 13.9123 3.756 13.756C3.91228 13.5997 4.00008 13.3878 4.00008 13.1667V8.88091C4.00008 8.6599 3.91228 8.44794 3.756 8.29166C3.59972 8.13538 3.38776 8.04758 3.16675 8.04758H2.41008C2.87341 4.82258 5.64841 2.33341 9.00008 2.33341C12.3517 2.33341 15.1267 4.82258 15.5901 8.04758H14.8334C14.6124 8.04758 14.4004 8.13538 14.2442 8.29166C14.0879 8.44794 14.0001 8.6599 14.0001 8.88091V14.0001C14.0001 14.9192 13.2526 15.6667 12.3334 15.6667H10.6667V14.8334H7.33341V17.3334H12.3334C14.1717 17.3334 15.6667 15.8384 15.6667 14.0001C16.5859 14.0001 17.3334 13.3059 17.3334 12.4526V9.00008C17.3334 4.40508 13.5951 0.666748 9.00008 0.666748Z" fill="black"/>
</svg>
