<svg width="120" height="43" viewBox="0 0 120 43" fill="none" xmlns="http://www.w3.org/2000/svg">
<path d="M10.368 12.344C14.3147 12.344 17.248 13.304 19.168 15.224C21.088 17.1227 22.048 19.8533 22.048 23.416C22.048 25.7413 21.5787 27.7787 20.64 29.528C19.7013 31.256 18.336 32.6 16.544 33.56C14.7733 34.52 12.6187 35 10.08 35C9.76 35 9.32267 34.9893 8.768 34.968C8.23467 34.9467 7.68 34.936 7.104 34.936C6.528 34.9147 6.00533 34.904 5.536 34.904C4.72533 34.904 3.92533 34.9147 3.136 34.936C2.368 34.936 1.73867 34.9573 1.248 35V34.36C1.97333 34.3173 2.51733 34.232 2.88 34.104C3.24267 33.976 3.47733 33.72 3.584 33.336C3.712 32.952 3.776 32.376 3.776 31.608V15.736C3.776 14.9467 3.712 14.3707 3.584 14.008C3.47733 13.624 3.232 13.368 2.848 13.24C2.48533 13.0907 1.952 13.0053 1.248 12.984V12.344C1.73867 12.3653 2.368 12.3973 3.136 12.44C3.92533 12.4613 4.704 12.4613 5.472 12.44C6.24 12.4187 7.09333 12.3973 8.032 12.376C8.992 12.3547 9.77067 12.344 10.368 12.344ZM9.824 12.92C8.84267 12.92 8.20267 13.1013 7.904 13.464C7.60533 13.8267 7.456 14.5627 7.456 15.672V31.672C7.456 32.7813 7.60533 33.5173 7.904 33.88C8.224 34.2427 8.87467 34.424 9.856 34.424C12.0107 34.424 13.6853 34.008 14.88 33.176C16.0747 32.3227 16.9173 31.0853 17.408 29.464C17.8987 27.8427 18.144 25.8693 18.144 23.544C18.144 21.1547 17.8773 19.1813 17.344 17.624C16.8107 16.0453 15.936 14.872 14.72 14.104C13.5253 13.3147 11.8933 12.92 9.824 12.92ZM33.7535 12.216L41.5615 32.312C41.8602 33.1013 42.2015 33.6347 42.5855 33.912C42.9908 34.1893 43.3642 34.3387 43.7055 34.36V35C43.1935 34.9573 42.5855 34.936 41.8815 34.936C41.1988 34.9147 40.5055 34.904 39.8015 34.904C38.9055 34.904 38.0735 34.9147 37.3055 34.936C36.5375 34.936 35.9188 34.9573 35.4495 35V34.36C36.5375 34.3173 37.2202 34.136 37.4975 33.816C37.7962 33.4747 37.7322 32.76 37.3055 31.672L31.5455 16.12L32.0575 15.544L26.7455 29.432C26.3615 30.392 26.1268 31.192 26.0415 31.832C25.9775 32.472 26.0308 32.9733 26.2015 33.336C26.3935 33.6987 26.7135 33.9547 27.1615 34.104C27.6095 34.2533 28.1642 34.3387 28.8255 34.36V35C28.1855 34.9573 27.5348 34.936 26.8735 34.936C26.2335 34.9147 25.6255 34.904 25.0495 34.904C24.5375 34.904 24.0788 34.9147 23.6735 34.936C23.2895 34.936 22.9375 34.9573 22.6175 35V34.36C23.0655 34.2533 23.5135 33.9867 23.9615 33.56C24.4095 33.1333 24.8362 32.408 25.2415 31.384L32.6655 12.216C32.8362 12.216 33.0175 12.216 33.2095 12.216C33.4015 12.216 33.5828 12.216 33.7535 12.216ZM37.1135 25.784V26.424H27.5775L27.8975 25.784H37.1135ZM62.457 12.344V12.984C62.0303 13.0907 61.5717 13.3787 61.081 13.848C60.6117 14.3173 60.1743 15.0747 59.769 16.12L52.505 35.128C52.4197 35.128 52.3343 35.128 52.249 35.128C52.1637 35.128 52.0677 35.128 51.961 35.128C51.8757 35.128 51.7903 35.128 51.705 35.128C51.6197 35.128 51.5343 35.128 51.449 35.128L43.513 15.032C43.193 14.2427 42.841 13.7093 42.457 13.432C42.073 13.1547 41.7103 13.0053 41.369 12.984V12.344C41.8597 12.3653 42.457 12.3867 43.161 12.408C43.8863 12.4293 44.5903 12.44 45.273 12.44C46.1477 12.44 46.969 12.4293 47.737 12.408C48.5263 12.3867 49.1557 12.3653 49.625 12.344V12.984C48.921 13.0053 48.377 13.0907 47.993 13.24C47.609 13.3893 47.3957 13.656 47.353 14.04C47.3317 14.4027 47.4597 14.9467 47.737 15.672L53.657 31.128L53.081 31.768L58.265 18.136C58.7557 16.8347 59.001 15.8213 59.001 15.096C59.001 14.3493 58.7663 13.816 58.297 13.496C57.8277 13.176 57.145 13.0053 56.249 12.984V12.344C56.9103 12.3653 57.561 12.3867 58.201 12.408C58.841 12.4293 59.449 12.44 60.025 12.44C60.5583 12.44 61.017 12.4293 61.401 12.408C61.785 12.3867 62.137 12.3653 62.457 12.344ZM82.6675 12.344V12.984C81.9848 13.0907 81.3022 13.336 80.6195 13.72C79.9582 14.0827 79.2862 14.6907 78.6035 15.544L72.4595 23.224L73.5475 21.272L81.2275 32.408C81.5688 32.92 81.9315 33.3253 82.3155 33.624C82.7208 33.9227 83.2328 34.168 83.8515 34.36V35C83.2755 34.9573 82.5822 34.936 81.7715 34.936C80.9608 34.9147 80.2462 34.904 79.6275 34.904C79.2435 34.904 78.7635 34.9147 78.1875 34.936C77.6328 34.936 76.9288 34.9573 76.0755 35V34.36C76.8648 34.3173 77.3448 34.1893 77.5155 33.976C77.7075 33.7627 77.6328 33.4107 77.2915 32.92L72.6515 25.72C72.2675 25.1227 71.9262 24.6747 71.6275 24.376C71.3288 24.056 71.0195 23.8533 70.6995 23.768C70.3795 23.6613 69.9848 23.5973 69.5155 23.576V22.904C70.4115 22.8827 71.1795 22.68 71.8195 22.296C72.4808 21.912 73.0995 21.3893 73.6755 20.728L76.3315 17.368C77.0782 16.4507 77.5582 15.672 77.7715 15.032C77.9848 14.3707 77.9315 13.8693 77.6115 13.528C77.2915 13.1867 76.6942 13.0053 75.8195 12.984V12.344C76.2675 12.3653 76.7048 12.3867 77.1315 12.408C77.5795 12.408 78.0275 12.4187 78.4755 12.44C78.9448 12.44 79.4035 12.44 79.8515 12.44C80.4275 12.44 80.9502 12.4293 81.4195 12.408C81.9102 12.3867 82.3262 12.3653 82.6675 12.344ZM72.1715 12.344V12.984C71.4675 13.0053 70.9342 13.0907 70.5715 13.24C70.2088 13.368 69.9635 13.624 69.8355 14.008C69.7075 14.3707 69.6435 14.9467 69.6435 15.736V31.608C69.6435 32.376 69.7075 32.952 69.8355 33.336C69.9635 33.72 70.2088 33.976 70.5715 34.104C70.9342 34.232 71.4675 34.3173 72.1715 34.36V35C71.6595 34.9573 71.0088 34.936 70.2195 34.936C69.4515 34.9147 68.6622 34.904 67.8515 34.904C66.9555 34.904 66.1128 34.9147 65.3235 34.936C64.5555 34.936 63.9262 34.9573 63.4355 35V34.36C64.1608 34.3173 64.7048 34.232 65.0675 34.104C65.4302 33.976 65.6648 33.72 65.7715 33.336C65.8995 32.952 65.9635 32.376 65.9635 31.608V15.736C65.9635 14.9467 65.8995 14.3707 65.7715 14.008C65.6648 13.624 65.4195 13.368 65.0355 13.24C64.6728 13.0907 64.1395 13.0053 63.4355 12.984V12.344C63.9262 12.3653 64.5555 12.3867 65.3235 12.408C66.1128 12.4293 66.9555 12.44 67.8515 12.44C68.6622 12.44 69.4515 12.4293 70.2195 12.408C71.0088 12.3867 71.6595 12.3653 72.1715 12.344ZM94.4413 11.896C96.5319 11.896 98.3666 12.3547 99.9453 13.272C101.545 14.1893 102.783 15.512 103.657 17.24C104.532 18.9467 104.969 21.0267 104.969 23.48C104.969 25.8693 104.521 27.96 103.625 29.752C102.729 31.544 101.481 32.9413 99.8813 33.944C98.2813 34.9467 96.4573 35.448 94.4093 35.448C92.2973 35.448 90.4519 34.9893 88.8733 34.072C87.2946 33.1547 86.0679 31.832 85.1933 30.104C84.3186 28.376 83.8813 26.296 83.8813 23.864C83.8813 21.4747 84.3293 19.384 85.2253 17.592C86.1426 15.8 87.3906 14.4027 88.9693 13.4C90.5479 12.3973 92.3719 11.896 94.4413 11.896ZM94.3133 12.472C92.9906 12.472 91.8386 12.952 90.8573 13.912C89.8759 14.872 89.1186 16.1947 88.5853 17.88C88.0519 19.5653 87.7853 21.5173 87.7853 23.736C87.7853 25.9973 88.0839 27.9707 88.6813 29.656C89.2786 31.32 90.0893 32.6107 91.1133 33.528C92.1373 34.424 93.2786 34.872 94.5373 34.872C95.8599 34.872 97.0013 34.392 97.9613 33.432C98.9426 32.472 99.6999 31.1493 100.233 29.464C100.788 27.7573 101.065 25.8053 101.065 23.608C101.065 21.3253 100.756 19.352 100.137 17.688C99.5399 16.024 98.7293 14.744 97.7053 13.848C96.7026 12.9307 95.5719 12.472 94.3133 12.472Z" fill="#1A1F2C"/>
<path d="M119.287 15.7344C119.287 16.5352 119.086 17.2812 118.684 17.9727C118.285 18.6641 117.74 19.209 117.049 19.6074C116.357 20.0059 115.611 20.2051 114.811 20.2051C114.014 20.2051 113.27 20.0059 112.578 19.6074C111.887 19.209 111.34 18.6641 110.938 17.9727C110.539 17.2812 110.34 16.5352 110.34 15.7344C110.34 14.9375 110.539 14.1934 110.938 13.502C111.34 12.8066 111.887 12.2598 112.578 11.8613C113.27 11.4629 114.014 11.2637 114.811 11.2637C115.611 11.2637 116.357 11.4629 117.049 11.8613C117.74 12.2598 118.285 12.8066 118.684 13.502C119.086 14.1934 119.287 14.9375 119.287 15.7344ZM118.42 15.7344C118.42 14.7383 118.066 13.8887 117.359 13.1855C116.656 12.4785 115.807 12.125 114.811 12.125C113.814 12.125 112.963 12.4785 112.256 13.1855C111.553 13.8887 111.201 14.7383 111.201 15.7344C111.201 16.7305 111.553 17.582 112.256 18.2891C112.963 18.9922 113.814 19.3438 114.811 19.3438C115.807 19.3438 116.656 18.9922 117.359 18.2891C118.066 17.582 118.42 16.7305 118.42 15.7344ZM115.854 16.2852L117.061 16.5723C116.912 17.0449 116.707 17.4082 116.445 17.6621C116.035 18.0566 115.5 18.2539 114.84 18.2539C114.121 18.2539 113.535 18.0234 113.082 17.5625C112.629 17.0977 112.402 16.4844 112.402 15.7227C112.402 15 112.635 14.4043 113.1 13.9355C113.564 13.4629 114.146 13.2266 114.846 13.2266C115.412 13.2266 115.889 13.377 116.275 13.6777C116.662 13.9785 116.906 14.3672 117.008 14.8438L115.854 15.0195C115.783 14.7031 115.654 14.4688 115.467 14.3164C115.283 14.1602 115.059 14.082 114.793 14.082C114.488 14.082 114.232 14.2129 114.025 14.4746C113.818 14.7324 113.715 15.1387 113.715 15.6934C113.715 16.252 113.785 16.6504 113.926 16.8887C114.133 17.2324 114.426 17.4043 114.805 17.4043C115.043 17.4043 115.256 17.3164 115.443 17.1406C115.635 16.9648 115.771 16.6797 115.854 16.2852Z" fill="#1A1F2C"/>
</svg>
