<svg width="22" height="18" viewBox="0 0 22 18" fill="none" xmlns="http://www.w3.org/2000/svg">
<path d="M10.1699 15.2789C10.5583 15.6762 11.1961 15.6806 11.5901 15.2888L19.426 7.49493C19.7607 7.16202 19.817 6.64039 19.561 6.24373L16.7954 1.9578C16.6112 1.67241 16.2948 1.5 15.9552 1.5H5.58967C5.22583 1.5 4.8907 1.69762 4.7146 2.016L2.36014 6.27287C2.14639 6.65933 2.21146 7.14025 2.52023 7.45601L10.1699 15.2789ZM4.05826 0.482884C4.23934 0.183165 4.564 0 4.91417 0H16.8358C17.186 0 17.5107 0.183166 17.6917 0.482884L21.3435 6.52722C21.5821 6.92205 21.5196 7.42883 21.1923 7.75388L11.5797 17.3002C11.1897 17.6875 10.5603 17.6875 10.1703 17.3002L0.557731 7.75388C0.230417 7.42883 0.167926 6.92205 0.406471 6.52722L4.05826 0.482884Z" fill="black"/>
</svg>
