<svg width="19" height="19" viewBox="0 0 19 19" fill="none" xmlns="http://www.w3.org/2000/svg">
<path fill-rule="evenodd" clip-rule="evenodd" d="M6.73856 1.28763C6.92765 1.22136 7.12656 1.18751 7.32692 1.1875C7.39334 1.1875 7.45927 1.19864 7.52199 1.22045C7.52238 1.22059 7.52329 1.22089 7.52471 1.22137C7.52824 1.22254 7.53491 1.22474 7.54464 1.22781C7.56411 1.23396 7.59579 1.24361 7.63898 1.25563C7.7254 1.27968 7.85766 1.31316 8.03019 1.3471C8.37554 1.41503 8.88013 1.48438 9.50007 1.48438C10.12 1.48438 10.6246 1.41503 10.9699 1.3471C11.1425 1.31316 11.2747 1.27968 11.3612 1.25563C11.4043 1.24361 11.436 1.23396 11.4555 1.22781C11.4652 1.22474 11.4719 1.22254 11.4754 1.22137C11.4769 1.22088 11.4778 1.22057 11.4782 1.22044C11.5409 1.19863 11.6068 1.1875 11.6732 1.1875C11.8736 1.18751 12.0725 1.22136 12.2616 1.28763C12.2616 1.28764 12.2617 1.28766 12.2617 1.28767C12.2618 1.2877 12.2619 1.28773 12.2619 1.28776L18.0087 3.29895C18.2859 3.39597 18.4505 3.68105 18.396 3.96963L17.7789 7.23525C17.7305 7.49122 17.5209 7.68577 17.2621 7.715L15.4483 7.91983C15.4483 7.91983 15.4482 7.91984 15.4482 7.91984C15.3742 7.92825 15.306 7.96416 15.2573 8.02045C15.2085 8.07678 15.1827 8.14939 15.1849 8.22388L15.185 8.22531L15.4373 17.2021C15.4418 17.3624 15.3813 17.5177 15.2695 17.6327C15.1577 17.7476 15.0042 17.8125 14.8438 17.8125H4.15632C3.99595 17.8125 3.8424 17.7476 3.73061 17.6327C3.61882 17.5177 3.55829 17.3624 3.5628 17.2021L3.81514 8.22531L3.81519 8.22388C3.81746 8.14939 3.79164 8.07678 3.74285 8.02045C3.6941 7.96416 3.62596 7.92825 3.55197 7.91984C3.55193 7.91984 3.55188 7.91983 3.55183 7.91983L1.73807 7.715C1.47921 7.68577 1.26964 7.49122 1.22127 7.23525L0.604142 3.96963C0.549608 3.68105 0.714238 3.39597 0.991435 3.29895L6.73819 1.28776C6.73827 1.28773 6.73835 1.2877 6.73843 1.28767C6.73848 1.28766 6.73852 1.28764 6.73856 1.28763ZM11.7487 2.37984C11.7281 2.38591 11.705 2.39255 11.6796 2.39964C11.566 2.43125 11.4039 2.47199 11.1991 2.51227C10.7899 2.59278 10.2079 2.67188 9.50007 2.67188C8.79223 2.67188 8.21026 2.59278 7.80099 2.51227C7.59621 2.47199 7.43414 2.43125 7.32057 2.39964C7.29508 2.39255 7.27203 2.38591 7.25146 2.37984C7.21056 2.3851 7.17025 2.39464 7.1312 2.40834L1.86584 4.25106L2.30675 6.58417L3.68537 6.73986C4.0556 6.78176 4.39653 6.96135 4.64046 7.24299C4.88423 7.52442 5.01332 7.88718 5.00216 8.25932C5.00215 8.25958 5.00214 8.25984 5.00213 8.26011L4.76699 16.625H14.2331L13.998 8.26011C13.998 8.25984 13.998 8.25958 13.998 8.25932C13.9868 7.88718 14.1159 7.52442 14.3597 7.24299C14.6036 6.96135 14.9445 6.78176 15.3148 6.73986L16.6934 6.58417L17.1343 4.25106L11.8689 2.40834C11.8299 2.39464 11.7896 2.3851 11.7487 2.37984Z" fill="black"/>
<path fill-rule="evenodd" clip-rule="evenodd" d="M6.47833 1.38046C6.79522 1.29614 7.12047 1.48468 7.20479 1.80157C7.33941 2.3075 7.63742 2.75476 8.05248 3.07383C8.46755 3.39289 8.9764 3.56587 9.49993 3.56587C10.0235 3.56587 10.5323 3.39289 10.9474 3.07383C11.3624 2.75476 11.6605 2.3075 11.7951 1.80157C11.8794 1.48468 12.2046 1.29614 12.5215 1.38046C12.8384 1.46478 13.027 1.79003 12.9426 2.10692C12.7407 2.86581 12.2937 3.53671 11.6711 4.01531C11.0485 4.4939 10.2852 4.75337 9.49993 4.75337C8.71464 4.75337 7.95136 4.4939 7.32876 4.01531C6.70616 3.53671 6.25915 2.86581 6.05722 2.10692C5.9729 1.79003 6.16144 1.46478 6.47833 1.38046Z" fill="black"/>
</svg>
