<svg width="24" height="24" viewBox="0 0 24 24" fill="none" xmlns="http://www.w3.org/2000/svg">
<path d="M21.3333 7.85003H16.8166V6.03337C16.8166 5.40083 16.692 4.77449 16.45 4.19011C16.2079 3.60572 15.8531 3.07474 15.4059 2.62747C14.9586 2.1802 14.4276 1.82541 13.8432 1.58335C13.2588 1.34129 12.6325 1.2167 12 1.2167C11.3674 1.2167 10.7411 1.34129 10.1567 1.58335C9.57232 1.82541 9.04133 2.1802 8.59406 2.62747C8.14679 3.07474 7.792 3.60572 7.54994 4.19011C7.30788 4.77449 7.18329 5.40083 7.18329 6.03337V10.7C7.18329 10.9166 7.26933 11.1243 7.42249 11.2775C7.57564 11.4307 7.78337 11.5167 7.99996 11.5167C8.21655 11.5167 8.42427 11.4307 8.57743 11.2775C8.73058 11.1243 8.81663 10.9166 8.81663 10.7V9.48337H14H14.15V9.33337V8.00003V7.85003H14H8.81663V6.03337C8.81663 5.18909 9.15201 4.3794 9.749 3.78241C10.346 3.18542 11.1557 2.85003 12 2.85003C12.8442 2.85003 13.6539 3.18542 14.2509 3.78241C14.8479 4.3794 15.1833 5.18909 15.1833 6.03337V10.6667C15.1833 10.8833 15.2693 11.091 15.4225 11.2442C15.5756 11.3973 15.7834 11.4834 16 11.4834C16.2166 11.4834 16.4243 11.3973 16.5774 11.2442C16.7306 11.091 16.8166 10.8833 16.8166 10.6667V9.48337H19.85V21.1834H4.14996V9.48337H5.99996H6.14996V9.33337V8.00003V7.85003H5.99996H2.66663H2.51663V8.00003V21.3934C2.51663 21.7709 2.66658 22.1329 2.93351 22.3998C3.20044 22.6667 3.56247 22.8167 3.93996 22.8167H20.06C20.4374 22.8167 20.7995 22.6667 21.0664 22.3998C21.3333 22.1329 21.4833 21.7709 21.4833 21.3934V8.00003V7.85003H21.3333Z" fill="#1A1F2C" stroke="#1E222C" stroke-width="0.3"/>
</svg>
