<svg width="11" height="12" viewBox="0 0 11 12" fill="none" xmlns="http://www.w3.org/2000/svg">
<path d="M11 4.76276C11 4.86442 10.9427 4.97532 10.8281 5.09546L8.42849 7.54915L8.99699 11.0148C9.0014 11.0472 9.00361 11.0934 9.00361 11.1534C9.00361 11.2505 8.98047 11.3325 8.93419 11.3995C8.88792 11.4665 8.82071 11.5 8.73257 11.5C8.64884 11.5 8.5607 11.4723 8.46815 11.4168L5.5 9.78103L2.53185 11.4168C2.4349 11.4723 2.34675 11.5 2.26743 11.5C2.17488 11.5 2.10547 11.4665 2.05919 11.3995C2.01292 11.3325 1.98978 11.2505 1.98978 11.1534C1.98978 11.1257 1.99419 11.0795 2.003 11.0148L2.57151 7.54915L0.165264 5.09546C0.0550881 4.9707 0 4.8598 0 4.76276C0 4.59179 0.123397 4.48551 0.370192 4.44392L3.6887 3.93793L5.17608 0.784184C5.25982 0.594728 5.36779 0.5 5.5 0.5C5.63221 0.5 5.74018 0.594728 5.82392 0.784184L7.3113 3.93793L10.6298 4.44392C10.8766 4.48551 11 4.59179 11 4.76276Z" fill="#FFD569"/>
</svg>
